<svg xmlns="http://www.w3.org/2000/svg" viewBox="0 0 560 360" role="img" aria-labelledby="title desc">
  <title id="title">Simplified provider comparison timeline</title>
  <desc id="desc">Two provider lanes with staggered windows, dotted start and stop markers, and an overlap band.</desc>
  <rect width="560" height="360" fill="#F5EFE0"/>
  <rect x="28" y="28" width="504" height="304" rx="8" fill="#F0E9D6" stroke="#D9CFB4"/>
  <text x="52" y="68" fill="#2B2A26" font-family="system-ui, -apple-system, Segoe UI, sans-serif" font-size="24" font-weight="760">Provider comparison</text>
  <text x="52" y="96" fill="#6B6659" font-family="system-ui, -apple-system, Segoe UI, sans-serif" font-size="13">Who saw the state, and when?</text>
  <g stroke="#D9CFB4" stroke-width="1">
    <line x1="154" y1="134" x2="500" y2="134"/>
    <line x1="154" y1="200" x2="500" y2="200"/>
    <line x1="154" y1="266" x2="500" y2="266"/>
  </g>
  <g stroke="#9A9484" stroke-dasharray="3 5" stroke-width="1.4">
    <line x1="212" y1="118" x2="212" y2="286"/>
    <line x1="406" y1="118" x2="406" y2="286"/>
    <line x1="284" y1="118" x2="284" y2="286"/>
    <line x1="468" y1="118" x2="468" y2="286"/>
  </g>
  <text x="52" y="139" fill="#6B6659" font-family="system-ui, -apple-system, Segoe UI, sans-serif" font-size="14" font-weight="700">Provider A</text>
  <text x="52" y="205" fill="#6B6659" font-family="system-ui, -apple-system, Segoe UI, sans-serif" font-size="14" font-weight="700">Provider B</text>
  <text x="52" y="271" fill="#6B6659" font-family="system-ui, -apple-system, Segoe UI, sans-serif" font-size="14" font-weight="700">Overlap</text>
  <rect x="212" y="124" width="194" height="20" fill="#5E7A9B"/>
  <rect x="284" y="190" width="184" height="20" fill="#3E6B5C"/>
  <rect x="284" y="256" width="122" height="20" fill="#2F7D8C"/>
  <text x="205" y="111" fill="#6B6659" font-family="system-ui, -apple-system, Segoe UI, sans-serif" font-size="11">start</text>
  <text x="397" y="111" fill="#6B6659" font-family="system-ui, -apple-system, Segoe UI, sans-serif" font-size="11">stop</text>
  <circle cx="284" cy="266" r="4" fill="#2B2A26"/>
  <circle cx="406" cy="266" r="4" fill="#2B2A26"/>
</svg>
