<svg xmlns="http://www.w3.org/2000/svg" viewBox="0 0 560 360" role="img" aria-labelledby="title desc">
  <title id="title">Simplified segmented live windows timeline</title>
  <desc id="desc">Segment bands with an open active window clipped by a live horizon.</desc>
  <rect width="560" height="360" fill="#F5EFE0"/>
  <rect x="28" y="28" width="504" height="304" rx="8" fill="#F0E9D6" stroke="#D9CFB4"/>
  <text x="52" y="68" fill="#2B2A26" font-family="system-ui, -apple-system, Segoe UI, sans-serif" font-size="24" font-weight="760">Segmented live</text>
  <text x="52" y="96" fill="#6B6659" font-family="system-ui, -apple-system, Segoe UI, sans-serif" font-size="13">Open windows clipped at an explicit horizon.</text>
  <rect x="156" y="120" width="92" height="176" fill="#E8DFC6"/>
  <rect x="248" y="120" width="112" height="176" fill="#F5EFE0"/>
  <rect x="360" y="120" width="92" height="176" fill="#E8DFC6"/>
  <g stroke="#D9CFB4" stroke-width="1">
    <line x1="156" y1="156" x2="500" y2="156"/>
    <line x1="156" y1="226" x2="500" y2="226"/>
  </g>
  <g stroke="#9A9484" stroke-dasharray="3 5" stroke-width="1.4">
    <line x1="248" y1="118" x2="248" y2="296"/>
    <line x1="452" y1="118" x2="452" y2="296"/>
  </g>
  <line x1="452" y1="112" x2="452" y2="306" stroke="#2B2A26" stroke-width="2"/>
  <g fill="#6B6659" font-family="system-ui, -apple-system, Segoe UI, sans-serif" font-size="14" font-weight="700">
    <text x="52" y="161">Open</text>
    <text x="52" y="231">Live view</text>
  </g>
  <rect x="248" y="146" width="204" height="20" fill="#5E7A9B" opacity=".24" stroke="#5E7A9B" stroke-dasharray="5 4" stroke-width="2"/>
  <rect x="248" y="216" width="204" height="20" fill="#3E6B5C"/>
  <text x="404" y="100" fill="#2B2A26" font-family="system-ui, -apple-system, Segoe UI, sans-serif" font-size="12" font-weight="760">horizon</text>
  <text x="184" y="318" fill="#6B6659" font-family="system-ui, -apple-system, Segoe UI, sans-serif" font-size="12">phase A</text>
  <text x="284" y="318" fill="#6B6659" font-family="system-ui, -apple-system, Segoe UI, sans-serif" font-size="12">phase B</text>
</svg>
